<svg width="107" height="81" viewBox="0 0 107 81" fill="none" xmlns="http://www.w3.org/2000/svg">
<path d="M0.320892 67.289H4.49689V76.433H9.75289V79.907H0.320892V67.289Z" fill="white"/>
<path d="M17.1326 67.019C18.4526 67.019 19.6406 67.301 20.6966 67.865C21.7526 68.429 22.5746 69.209 23.1626 70.205C23.7626 71.201 24.0626 72.323 24.0626 73.571C24.0626 74.831 23.7626 75.965 23.1626 76.973C22.5746 77.981 21.7526 78.773 20.6966 79.349C19.6406 79.913 18.4526 80.195 17.1326 80.195C15.8126 80.195 14.6246 79.913 13.5686 79.349C12.5126 78.773 11.6846 77.981 11.0846 76.973C10.4966 75.965 10.2026 74.831 10.2026 73.571C10.2026 72.311 10.4966 71.183 11.0846 70.187C11.6846 69.191 12.5126 68.417 13.5686 67.865C14.6246 67.301 15.8126 67.019 17.1326 67.019ZM17.1866 70.493C16.7066 70.493 16.2566 70.631 15.8366 70.907C15.4286 71.171 15.0986 71.537 14.8466 72.005C14.6066 72.473 14.4866 73.001 14.4866 73.589C14.4866 74.177 14.6066 74.711 14.8466 75.191C15.0986 75.659 15.4286 76.031 15.8366 76.307C16.2566 76.583 16.7066 76.721 17.1866 76.721C17.6666 76.721 18.1046 76.589 18.5006 76.325C18.8966 76.049 19.2086 75.671 19.4366 75.191C19.6646 74.711 19.7786 74.177 19.7786 73.589C19.7786 73.001 19.6646 72.473 19.4366 72.005C19.2086 71.525 18.8966 71.153 18.5006 70.889C18.1046 70.625 17.6666 70.493 17.1866 70.493Z" fill="white"/>
<path d="M33.3831 73.265H36.9651V78.539C36.2571 79.019 35.3811 79.415 34.3371 79.727C33.3051 80.039 32.3391 80.195 31.4391 80.195C30.1311 80.195 28.9551 79.913 27.9111 79.349C26.8791 78.773 26.0691 77.987 25.4811 76.991C24.8931 75.983 24.5991 74.849 24.5991 73.589C24.5991 72.341 24.9051 71.219 25.5171 70.223C26.1291 69.215 26.9751 68.429 28.0551 67.865C29.1351 67.301 30.3531 67.019 31.7091 67.019C32.6931 67.019 33.6771 67.199 34.6611 67.559C35.6571 67.919 36.4911 68.399 37.1631 68.999L34.8051 71.861C34.3851 71.441 33.8871 71.111 33.3111 70.871C32.7471 70.619 32.2071 70.493 31.6911 70.493C31.1631 70.493 30.6831 70.631 30.2511 70.907C29.8191 71.171 29.4831 71.537 29.2431 72.005C29.0031 72.473 28.8831 73.001 28.8831 73.589C28.8831 74.189 29.0031 74.729 29.2431 75.209C29.4951 75.677 29.8371 76.049 30.2691 76.325C30.7011 76.589 31.1871 76.721 31.7271 76.721C32.1831 76.721 32.7351 76.577 33.3831 76.289V73.265Z" fill="white"/>
<path d="M44.8182 67.019C46.1382 67.019 47.3262 67.301 48.3822 67.865C49.4382 68.429 50.2602 69.209 50.8482 70.205C51.4482 71.201 51.7482 72.323 51.7482 73.571C51.7482 74.831 51.4482 75.965 50.8482 76.973C50.2602 77.981 49.4382 78.773 48.3822 79.349C47.3262 79.913 46.1382 80.195 44.8182 80.195C43.4982 80.195 42.3102 79.913 41.2542 79.349C40.1982 78.773 39.3702 77.981 38.7702 76.973C38.1822 75.965 37.8882 74.831 37.8882 73.571C37.8882 72.311 38.1822 71.183 38.7702 70.187C39.3702 69.191 40.1982 68.417 41.2542 67.865C42.3102 67.301 43.4982 67.019 44.8182 67.019ZM44.8722 70.493C44.3922 70.493 43.9422 70.631 43.5222 70.907C43.1142 71.171 42.7842 71.537 42.5322 72.005C42.2922 72.473 42.1722 73.001 42.1722 73.589C42.1722 74.177 42.2922 74.711 42.5322 75.191C42.7842 75.659 43.1142 76.031 43.5222 76.307C43.9422 76.583 44.3922 76.721 44.8722 76.721C45.3522 76.721 45.7902 76.589 46.1862 76.325C46.5822 76.049 46.8942 75.671 47.1222 75.191C47.3502 74.711 47.4642 74.177 47.4642 73.589C47.4642 73.001 47.3502 72.473 47.1222 72.005C46.8942 71.525 46.5822 71.153 46.1862 70.889C45.7902 70.625 45.3522 70.493 44.8722 70.493Z" fill="white"/>
<path d="M56.5182 67.289H60.6942V72.185H64.6002V67.289H68.7762V79.907H64.6002V75.353H60.6942V79.907H56.5182V67.289Z" fill="white"/>
<path d="M70.5807 67.289H81.2547V70.457H74.7567V72.005H80.6607V75.173H74.7567V76.739H81.4167V79.907H70.5807V67.289Z" fill="white"/>
<path d="M90.2624 79.907L88.7504 76.631H87.1844V79.907H83.0084V67.289H89.1104C90.8264 67.289 92.1524 67.685 93.0884 68.477C94.0244 69.257 94.4924 70.367 94.4924 71.807C94.4924 72.719 94.3184 73.517 93.9704 74.201C93.6344 74.873 93.1424 75.407 92.4944 75.803L94.9784 79.907H90.2624ZM87.1844 73.463H89.1104C89.5664 73.463 89.9144 73.331 90.1544 73.067C90.4064 72.791 90.5324 72.413 90.5324 71.933C90.5324 71.465 90.4064 71.105 90.1544 70.853C89.9144 70.589 89.5664 70.457 89.1104 70.457H87.1844V73.463Z" fill="white"/>
<path d="M96.0514 67.289H106.725V70.457H100.227V72.005H106.131V75.173H100.227V76.739H106.887V79.907H96.0514V67.289Z" fill="white"/>
<path fill-rule="evenodd" clip-rule="evenodd" d="M59.1154 0.116302H54.81H54H53V11.391C45.2979 11.6093 38.8406 16.8548 36.7295 23.942H35.588C33.6064 23.942 32 25.5484 32 27.5301C32 28.3227 32.6426 28.9653 33.4352 28.9653L36 28.9653V47.9329C34.4774 48.248 33.1565 49.1144 32.2553 50.3141H31.0232C28.249 50.3141 26 52.5631 26 55.3374H81C81 52.5631 78.751 50.3141 75.9767 50.3141H74.7446C74.0474 49.3858 73.0988 48.6571 72 48.2289V28.9653H73.5648C74.3574 28.9653 75 28.3227 75 27.5301C75 25.5484 73.3936 23.942 71.412 23.942H70.2704C68.2338 17.1047 62.1521 11.9815 54.81 11.4327V6.54028H55.8846V7.21642H61V0.792439H59.1154V0.116302ZM40 28.9653V47.8025H44V28.9653H40ZM48 28.9653V47.8025H52V28.9653H48ZM56 28.9653V47.8025H60V28.9653H56ZM64 28.9653V47.8025H68V28.9653H64Z" fill="white"/>
</svg>
